<svg version="1.1" xmlns="http://www.w3.org/2000/svg" xmlns:xlink="http://www.w3.org/1999/xlink" width="2714" height="1824"><defs/><g><g/><g/><g/><g/><g/><g/><g/><g/><g/><g/><g/><g/><g/><g/><g/><g/><g/><g/><g/><g/><g/><g/><g/><g/><g/><g/><g/><g/><g/><g/><g/><g><rect fill="white" stroke="none" x="0" y="0" width="2714" height="1824"/></g><g><text fill="black" stroke="none" font-family="sans-serif" font-size="16.5pt" font-style="normal" font-weight="normal" text-decoration="normal" x="1275.086670922371" y="24.50280495" text-anchor="start" dominant-baseline="alphabetic" xml:space="preserve">Storage Job flow</text></g><g/><g><path fill="none" stroke="black" paint-order="fill stroke markers" d=" M 58.89772118069532 95.887643371 L 58.89772118069532 1824.1521525109993" stroke-miterlimit="10" stroke-width="1.3612669416666667" stroke-dasharray="12.565541,5.445067766666667"/><path fill="none" stroke="black" paint-order="fill stroke markers" d=" M 320.9616918012813 95.887643371 L 320.9616918012813 1824.1521525109993" stroke-miterlimit="10" stroke-width="1.3612669416666667" stroke-dasharray="12.565541,5.445067766666667"/><path fill="none" stroke="black" paint-order="fill stroke markers" d=" M 583.0256624218673 95.887643371 L 583.0256624218673 1824.1521525109993" stroke-miterlimit="10" stroke-width="1.3612669416666667" stroke-dasharray="12.565541,5.445067766666667"/><path fill="none" stroke="black" paint-order="fill stroke markers" d=" M 838.5505858012423 95.887643371 L 838.5505858012423 1824.1521525109993" stroke-miterlimit="10" stroke-width="1.3612669416666667" stroke-dasharray="12.565541,5.445067766666667"/><path fill="none" stroke="black" paint-order="fill stroke markers" d=" M 1125.4332855478867 95.887643371 L 1125.4332855478867 1824.1521525109993" stroke-miterlimit="10" stroke-width="1.3612669416666667" stroke-dasharray="12.565541,5.445067766666667"/><path fill="none" stroke="black" paint-order="fill stroke markers" d=" M 1359.7569490396484 95.887643371 L 1359.7569490396484 1824.1521525109993" stroke-miterlimit="10" stroke-width="1.3612669416666667" stroke-dasharray="12.565541,5.445067766666667"/><path fill="none" stroke="black" paint-order="fill stroke markers" d=" M 1497.108574262367 95.887643371 L 1497.108574262367 1824.1521525109993" stroke-miterlimit="10" stroke-width="1.3612669416666667" stroke-dasharray="12.565541,5.445067766666667"/><path fill="none" stroke="black" paint-order="fill stroke markers" d=" M 1691.0850774147732 95.887643371 L 1691.0850774147732 1824.1521525109993" stroke-miterlimit="10" stroke-width="1.3612669416666667" stroke-dasharray="12.565541,5.445067766666667"/><path fill="none" stroke="black" paint-order="fill stroke markers" d=" M 1986.0994528816325 95.887643371 L 1986.0994528816325 1824.1521525109993" stroke-miterlimit="10" stroke-width="1.3612669416666667" stroke-dasharray="12.565541,5.445067766666667"/><path fill="none" stroke="black" paint-order="fill stroke markers" d=" M 2212.6707741492733 95.887643371 L 2212.6707741492733 1824.1521525109993" stroke-miterlimit="10" stroke-width="1.3612669416666667" stroke-dasharray="12.565541,5.445067766666667"/><path fill="none" stroke="black" paint-order="fill stroke markers" d=" M 2372.8283914984568 95.887643371 L 2372.8283914984568 1824.1521525109993" stroke-miterlimit="10" stroke-width="1.3612669416666667" stroke-dasharray="12.565541,5.445067766666667"/><path fill="none" stroke="black" paint-order="fill stroke markers" d=" M 2589.1778041967614 95.887643371 L 2589.1778041967614 1824.1521525109993" stroke-miterlimit="10" stroke-width="1.3612669416666667" stroke-dasharray="12.565541,5.445067766666667"/></g><g><path fill="none" stroke="none"/><g><path fill="white" stroke="black" paint-order="fill stroke markers" d=" M 8.167601650000002 51.782594461 L 109.62784071139063 51.782594461 L 109.62784071139063 95.887643371 L 8.167601650000002 95.887643371 L 8.167601650000002 51.782594461 Z" stroke-miterlimit="10" stroke-width="2.613632528" stroke-dasharray=""/></g><g><g/><text fill="black" stroke="none" font-family="sans-serif" font-size="11pt" font-style="normal" font-weight="normal" text-decoration="normal" x="25.891297230500008" y="79.55244007099999" text-anchor="start" dominant-baseline="alphabetic" xml:space="preserve">Scheduler</text></g><path fill="none" stroke="none"/><g><path fill="white" stroke="black" paint-order="fill stroke markers" d=" M 262.4899798633594 51.782594461 L 379.4334037392032 51.782594461 L 379.4334037392032 95.887643371 L 262.4899798633594 95.887643371 L 262.4899798633594 51.782594461 Z" stroke-miterlimit="10" stroke-width="2.613632528" stroke-dasharray=""/></g><g><g/><text fill="black" stroke="none" font-family="sans-serif" font-size="11pt" font-style="normal" font-weight="normal" text-decoration="normal" x="280.2136754438594" y="79.55244007099999" text-anchor="start" dominant-baseline="alphabetic" xml:space="preserve">JobManager</text></g><path fill="none" stroke="none"/><g><path fill="white" stroke="black" paint-order="fill stroke markers" d=" M 482.1738693071876 51.782594461 L 683.877455536547 51.782594461 L 683.877455536547 95.887643371 L 482.1738693071876 95.887643371 L 482.1738693071876 51.782594461 Z" stroke-miterlimit="10" stroke-width="2.613632528" stroke-dasharray=""/></g><g><g/><text fill="black" stroke="none" font-family="sans-serif" font-size="11pt" font-style="normal" font-weight="normal" text-decoration="normal" x="499.8975648876876" y="79.55244007099999" text-anchor="start" dominant-baseline="alphabetic" xml:space="preserve">StoragetypeJobDelegator</text></g><path fill="none" stroke="none"/><g><path fill="white" stroke="black" paint-order="fill stroke markers" d=" M 713.6651623154688 51.782594461 L 963.4360092870157 51.782594461 L 963.4360092870157 95.887643371 L 713.6651623154688 95.887643371 L 713.6651623154688 51.782594461 Z" stroke-miterlimit="10" stroke-width="2.613632528" stroke-dasharray=""/></g><g><g/><text fill="black" stroke="none" font-family="sans-serif" font-size="11pt" font-style="normal" font-weight="normal" text-decoration="normal" x="731.3888578959688" y="79.55244007099999" text-anchor="start" dominant-baseline="alphabetic" xml:space="preserve">AbstractStoragetypeJobManager</text></g><path fill="none" stroke="none"/><g><path fill="white" stroke="black" paint-order="fill stroke markers" d=" M 979.7712125870156 51.782594461 L 1271.0953585087577 51.782594461 L 1271.0953585087577 95.887643371 L 979.7712125870156 95.887643371 L 979.7712125870156 51.782594461 Z" stroke-miterlimit="10" stroke-width="2.613632528" stroke-dasharray=""/></g><g><g/><text fill="black" stroke="none" font-family="sans-serif" font-size="11pt" font-style="normal" font-weight="normal" text-decoration="normal" x="997.4949081675156" y="79.55244007099999" text-anchor="start" dominant-baseline="alphabetic" xml:space="preserve">Tape(AbstractStoragetype)JobManager</text></g><path fill="none" stroke="none"/><g><path fill="white" stroke="black" paint-order="fill stroke markers" d=" M 1287.4305618087578 51.782594461 L 1432.0833362705391 51.782594461 L 1432.0833362705391 95.887643371 L 1287.4305618087578 95.887643371 L 1287.4305618087578 51.782594461 Z" stroke-miterlimit="10" stroke-width="2.613632528" stroke-dasharray=""/></g><g><g/><text fill="black" stroke="none" font-family="sans-serif" font-size="11pt" font-style="normal" font-weight="normal" text-decoration="normal" x="1305.1542573892577" y="79.55244007099999" text-anchor="start" dominant-baseline="alphabetic" xml:space="preserve">TapeJobSelector</text></g><path fill="none" stroke="none"/><g><path fill="white" stroke="black" paint-order="fill stroke markers" d=" M 1448.418539570539 51.782594461 L 1545.7986089541953 51.782594461 L 1545.7986089541953 95.887643371 L 1448.418539570539 95.887643371 L 1448.418539570539 51.782594461 Z" stroke-miterlimit="10" stroke-width="2.613632528" stroke-dasharray=""/></g><g><g/><text fill="black" stroke="none" font-family="sans-serif" font-size="11pt" font-style="normal" font-weight="normal" text-decoration="normal" x="1466.142235151039" y="79.55244007099999" text-anchor="start" dominant-baseline="alphabetic" xml:space="preserve">TapeTask</text></g><path fill="none" stroke="none"/><g><path fill="white" stroke="black" paint-order="fill stroke markers" d=" M 1562.1338122541952 51.782594461 L 1820.0363425753515 51.782594461 L 1820.0363425753515 95.887643371 L 1562.1338122541952 95.887643371 L 1562.1338122541952 51.782594461 Z" stroke-miterlimit="10" stroke-width="2.613632528" stroke-dasharray=""/></g><g><g/><text fill="black" stroke="none" font-family="sans-serif" font-size="11pt" font-style="normal" font-weight="normal" text-decoration="normal" x="1579.857507834695" y="79.55244007099999" text-anchor="start" dominant-baseline="alphabetic" xml:space="preserve">AbstractStoragetypeJobProcessor</text></g><path fill="none" stroke="none"/><g><path fill="white" stroke="black" paint-order="fill stroke markers" d=" M 1836.3715458753513 51.782594461 L 2135.8273598879136 51.782594461 L 2135.8273598879136 95.887643371 L 1836.3715458753513 95.887643371 L 1836.3715458753513 51.782594461 Z" stroke-miterlimit="10" stroke-width="2.613632528" stroke-dasharray=""/></g><g><g/><text fill="black" stroke="none" font-family="sans-serif" font-size="11pt" font-style="normal" font-weight="normal" text-decoration="normal" x="1854.0952414558512" y="79.55244007099999" text-anchor="start" dominant-baseline="alphabetic" xml:space="preserve">Tape(AbstractStoragetype)JobProcessor</text></g><path fill="none" stroke="none"/><g><path fill="white" stroke="black" paint-order="fill stroke markers" d=" M 2152.1625631879137 51.782594461 L 2273.1789851106323 51.782594461 L 2273.1789851106323 95.887643371 L 2152.1625631879137 95.887643371 L 2152.1625631879137 51.782594461 Z" stroke-miterlimit="10" stroke-width="2.613632528" stroke-dasharray=""/></g><g><g/><text fill="black" stroke="none" font-family="sans-serif" font-size="11pt" font-style="normal" font-weight="normal" text-decoration="normal" x="2169.886258768414" y="79.55244007099999" text-anchor="start" dominant-baseline="alphabetic" xml:space="preserve">IStoragelevel</text></g><path fill="none" stroke="none"/><g><path fill="white" stroke="black" paint-order="fill stroke markers" d=" M 2289.5141884106324 51.782594461 L 2456.1425945862807 51.782594461 L 2456.1425945862807 95.887643371 L 2289.5141884106324 95.887643371 L 2289.5141884106324 51.782594461 Z" stroke-miterlimit="10" stroke-width="2.613632528" stroke-dasharray=""/></g><g><g/><text fill="black" stroke="none" font-family="sans-serif" font-size="11pt" font-style="normal" font-weight="normal" text-decoration="normal" x="2307.2378839911325" y="79.55244007099999" text-anchor="start" dominant-baseline="alphabetic" xml:space="preserve">Block(I)Storagelevel</text></g><path fill="none" stroke="none"/><g><path fill="white" stroke="black" paint-order="fill stroke markers" d=" M 2472.4777978862808 51.782594461 L 2705.8778105072415 51.782594461 L 2705.8778105072415 95.887643371 L 2472.4777978862808 95.887643371 L 2472.4777978862808 51.782594461 Z" stroke-miterlimit="10" stroke-width="2.613632528" stroke-dasharray=""/></g><g><g/><text fill="black" stroke="none" font-family="sans-serif" font-size="11pt" font-style="normal" font-weight="normal" text-decoration="normal" x="2490.201493466781" y="79.55244007099999" text-anchor="start" dominant-baseline="alphabetic" xml:space="preserve">BruArchiver(IArchiveformatter)</text></g></g><g><g><g><rect fill="white" stroke="none" x="156.1086450511641" y="128.558049971" width="67.64212287964844" height="21.23576429"/></g><text fill="black" stroke="none" font-family="sans-serif" font-size="11pt" font-style="normal" font-weight="normal" text-decoration="normal" x="158.5589255461641" y="143.259732941" text-anchor="start" dominant-baseline="alphabetic" xml:space="preserve">manage()</text></g><g><path fill="none" stroke="black" paint-order="fill stroke markers" d=" M 58.89772118069532 149.793814261 L 318.239157917948 149.793814261" stroke-miterlimit="10" stroke-width="1.3612669416666667" stroke-dasharray=""/><g transform="translate(320.9616918012813,149.793814261) translate(-320.9616918012813,-149.793814261)"><path fill="black" stroke="none" paint-order="stroke fill markers" d=" M 307.3490223846146 142.98747955266666 L 320.9616918012813 149.793814261 L 307.3490223846146 156.60014896933333 Z"/></g></g><path fill="white" stroke="black" paint-order="fill stroke markers" d=" M 67.06532283069532 174.296619211 L 560.1563778018673 174.296619211 L 574.8580607718673 188.998302181 L 574.8580607718673 211.867586801 L 67.06532283069532 211.867586801 L 67.06532283069532 174.296619211 M 560.1563778018673 174.296619211 L 560.1563778018673 188.998302181 L 574.8580607718673 188.998302181" stroke-miterlimit="10" stroke-width="1.3612669416666667" stroke-dasharray=""/><g><text fill="black" stroke="none" font-family="sans-serif" font-size="11pt" font-style="normal" font-weight="normal" text-decoration="normal" x="89.93460745069535" y="197.16590383099995" text-anchor="start" dominant-baseline="alphabetic" xml:space="preserve">blocks other jobs from getting dequeued if map/format jobs are lined up</text></g><path fill="white" stroke="black" paint-order="fill stroke markers" d=" M 89.5670928502266 236.37039175099994 L 537.654607782336 236.37039175099994 L 552.356290752336 251.07207472099995 L 552.356290752336 273.94135934099995 L 89.5670928502266 273.94135934099995 L 89.5670928502266 236.37039175099994 M 537.654607782336 236.37039175099994 L 537.654607782336 251.07207472099995 L 552.356290752336 251.07207472099995" stroke-miterlimit="10" stroke-width="1.3612669416666667" stroke-dasharray=""/><g><text fill="black" stroke="none" font-family="sans-serif" font-size="11pt" font-style="normal" font-weight="normal" text-decoration="normal" x="112.4363774702266" y="259.2396763709999" text-anchor="start" dominant-baseline="alphabetic" xml:space="preserve">lists "ready" jobs and delegates to storage/processing managers</text></g><g><g><rect fill="white" stroke="none" x="416.536972666379" y="298.44416429099994" width="70.91340889039063" height="21.23576429"/></g><text fill="black" stroke="none" font-family="sans-serif" font-size="11pt" font-style="normal" font-weight="normal" text-decoration="normal" x="418.987253161379" y="313.1458472609999" text-anchor="start" dominant-baseline="alphabetic" xml:space="preserve">delegate()</text></g><g><path fill="none" stroke="black" paint-order="fill stroke markers" d=" M 320.9616918012813 319.67992858099996 L 580.303128538534 319.67992858099996" stroke-miterlimit="10" stroke-width="1.3612669416666667" stroke-dasharray=""/><g transform="translate(583.0256624218673,319.67992858099996) translate(-583.0256624218673,-319.67992858099996)"><path fill="black" stroke="none" paint-order="stroke fill markers" d=" M 569.4129930052006 312.8735938726666 L 583.0256624218673 319.67992858099996 L 569.4129930052006 326.4862632893333 Z"/></g></g><path fill="white" stroke="black" paint-order="fill stroke markers" d=" M 451.5129070377072 344.18273353099994 L 699.8367348360275 344.18273353099994 L 714.5384178060275 358.8844165009999 L 714.5384178060275 381.75370112099995 L 451.5129070377072 381.75370112099995 L 451.5129070377072 344.18273353099994 M 699.8367348360275 344.18273353099994 L 699.8367348360275 358.8844165009999 L 714.5384178060275 358.8844165009999" stroke-miterlimit="10" stroke-width="1.3612669416666667" stroke-dasharray=""/><g><text fill="black" stroke="none" font-family="sans-serif" font-size="11pt" font-style="normal" font-weight="normal" text-decoration="normal" x="474.38219165770715" y="367.0520181509999" text-anchor="start" dominant-baseline="alphabetic" xml:space="preserve">Wraps Job with extra storage info</text></g><path fill="white" stroke="black" paint-order="fill stroke markers" d=" M 335.66834069249234 406.25650607099993 L 815.6813011812424 406.25650607099993 L 830.3829841512423 420.9581890409999 L 830.3829841512423 443.82747366099994 L 335.66834069249234 443.82747366099994 L 335.66834069249234 406.25650607099993 M 815.6813011812424 406.25650607099993 L 815.6813011812424 420.9581890409999 L 830.3829841512423 420.9581890409999" stroke-miterlimit="10" stroke-width="1.3612669416666667" stroke-dasharray=""/><g><text fill="black" stroke="none" font-family="sans-serif" font-size="11pt" font-style="normal" font-weight="normal" text-decoration="normal" x="358.5376253124923" y="429.1257906909999" text-anchor="start" dominant-baseline="alphabetic" xml:space="preserve">Delegates the storagetype specific jobs to respective impls to run / /ly</text></g><g><g><rect fill="white" stroke="none" x="630.1023699837423" y="468.3302786109999" width="161.371508255625" height="21.23576429"/></g><text fill="black" stroke="none" font-family="sans-serif" font-size="11pt" font-style="normal" font-weight="normal" text-decoration="normal" x="632.5526504787423" y="483.0319615809999" text-anchor="start" dominant-baseline="alphabetic" xml:space="preserve">manage() on sep thread</text></g><g><path fill="none" stroke="black" paint-order="fill stroke markers" d=" M 583.0256624218673 489.56604290099995 L 835.828051917909 489.56604290099995" stroke-miterlimit="10" stroke-width="1.3612669416666667" stroke-dasharray="6.53408132"/><g transform="translate(838.5505858012423,489.56604290099995) translate(-838.5505858012423,-489.56604290099995)"><path fill="black" stroke="none" paint-order="stroke fill markers" d=" M 824.9379163845756 482.7597081926666 L 838.5505858012423 489.56604290099995 L 824.9379163845756 496.3723776093333 Z"/></g></g><path fill="white" stroke="black" paint-order="fill stroke markers" d=" M 737.0485497163986 514.0688478509999 L 925.3509389160862 514.0688478509999 L 940.0526218860862 528.7705308209999 L 940.0526218860862 551.6398154409999 L 737.0485497163986 551.6398154409999 L 737.0485497163986 514.0688478509999 M 925.3509389160862 514.0688478509999 L 925.3509389160862 528.7705308209999 L 940.0526218860862 528.7705308209999" stroke-miterlimit="10" stroke-width="1.3612669416666667" stroke-dasharray=""/><g><text fill="black" stroke="none" font-family="sans-serif" font-size="11pt" font-style="normal" font-weight="normal" text-decoration="normal" x="759.9178343363985" y="536.9381324709999" text-anchor="start" dominant-baseline="alphabetic" xml:space="preserve">Tape/Disk JobManagers</text></g><g><g><rect fill="white" stroke="none" x="964.0656496253653" y="576.1426203909998" width="35.85257209839844" height="21.23576429"/></g><text fill="black" stroke="none" font-family="sans-serif" font-size="11pt" font-style="normal" font-weight="normal" text-decoration="normal" x="966.5159301203653" y="590.8443033609998" text-anchor="start" dominant-baseline="alphabetic" xml:space="preserve">run()</text></g><g><path fill="none" stroke="black" paint-order="fill stroke markers" d=" M 838.5505858012423 597.3783846809998 L 1122.7107516645533 597.3783846809998" stroke-miterlimit="10" stroke-width="1.3612669416666667" stroke-dasharray=""/><g transform="translate(1125.4332855478867,597.3783846809998) translate(-1125.4332855478867,-597.3783846809998)"><path fill="black" stroke="none" paint-order="stroke fill markers" d=" M 1111.82061613122 590.5720499726665 L 1125.4332855478867 597.3783846809998 L 1111.82061613122 604.1847193893332 Z"/></g></g><path fill="white" stroke="black" paint-order="fill stroke markers" d=" M 955.8926142091368 621.8811896309999 L 1280.2722739166368 621.8811896309999 L 1294.9739568866369 636.5828726009998 L 1294.9739568866369 659.4521572209999 L 955.8926142091368 659.4521572209999 L 955.8926142091368 621.8811896309999 M 1280.2722739166368 621.8811896309999 L 1280.2722739166368 636.5828726009998 L 1294.9739568866369 636.5828726009998" stroke-miterlimit="10" stroke-width="1.3612669416666667" stroke-dasharray=""/><g><text fill="black" stroke="none" font-family="sans-serif" font-size="11pt" font-style="normal" font-weight="normal" text-decoration="normal" x="978.7618988291367" y="644.7504742509999" text-anchor="start" dominant-baseline="alphabetic" xml:space="preserve">If map/format unloads all tapes and calls impl</text></g><path fill="white" stroke="black" paint-order="fill stroke markers" d=" M 1000.2949121827696 683.9549621709998 L 1235.869975943004 683.9549621709998 L 1250.571658913004 698.6566451409998 L 1250.571658913004 721.5259297609998 L 1000.2949121827696 721.5259297609998 L 1000.2949121827696 683.9549621709998 M 1235.869975943004 683.9549621709998 L 1235.869975943004 698.6566451409998 L 1250.571658913004 698.6566451409998" stroke-miterlimit="10" stroke-width="1.3612669416666667" stroke-dasharray=""/><g><text fill="black" stroke="none" font-family="sans-serif" font-size="11pt" font-style="normal" font-weight="normal" text-decoration="normal" x="1023.1641968027695" y="706.8242467909998" text-anchor="start" dominant-baseline="alphabetic" xml:space="preserve">else iterates on available drives</text></g><g><g><rect fill="white" stroke="none" x="1196.136268988709" y="746.0287347109997" width="92.91769661011719" height="21.23576429"/></g><text fill="black" stroke="none" font-family="sans-serif" font-size="11pt" font-style="normal" font-weight="normal" text-decoration="normal" x="1198.586549483709" y="760.7304176809997" text-anchor="start" dominant-baseline="alphabetic" xml:space="preserve">Job Selection</text></g><g><path fill="none" stroke="black" paint-order="fill stroke markers" d=" M 1125.4332855478867 767.2644990009998 L 1357.034415156315 767.2644990009998" stroke-miterlimit="10" stroke-width="1.3612669416666667" stroke-dasharray=""/><g transform="translate(1359.7569490396484,767.2644990009998) translate(-1359.7569490396484,-767.2644990009998)"><path fill="black" stroke="none" paint-order="stroke fill markers" d=" M 1346.1442796229817 760.4581642926664 L 1359.7569490396484 767.2644990009998 L 1346.1442796229817 774.0708337093331 Z"/></g></g><g><g><rect fill="white" stroke="none" x="1197.7647556220097" y="791.7673039509997" width="89.66072334351563" height="21.23576429"/></g><text fill="black" stroke="none" font-family="sans-serif" font-size="11pt" font-style="normal" font-weight="normal" text-decoration="normal" x="1200.2150361170097" y="806.4689869209997" text-anchor="start" dominant-baseline="alphabetic" xml:space="preserve">Selected Job</text></g><g><path fill="none" stroke="black" paint-order="fill stroke markers" d=" M 1359.7569490396484 813.0030682409997 L 1128.1558194312202 813.0030682409997" stroke-miterlimit="10" stroke-width="1.3612669416666667" stroke-dasharray=""/><g transform="translate(1125.4332855478867,813.0030682409997) translate(-1125.4332855478867,-813.0030682409997)"><path fill="black" stroke="none" paint-order="stroke fill markers" d=" M 1139.0459549645534 806.1967335326664 L 1125.4332855478867 813.0030682409997 L 1139.0459549645534 819.809402949333 Z"/></g></g><path fill="white" stroke="black" paint-order="fill stroke markers" d=" M 975.0193079347227 837.5058731909996 L 1261.1455801910508 837.5058731909996 L 1275.847263161051 852.2075561609996 L 1275.847263161051 875.0768407809996 L 975.0193079347227 875.0768407809996 L 975.0193079347227 837.5058731909996 M 1261.1455801910508 837.5058731909996 L 1261.1455801910508 852.2075561609996 L 1275.847263161051 852.2075561609996" stroke-miterlimit="10" stroke-width="1.3612669416666667" stroke-dasharray=""/><g><text fill="black" stroke="none" font-family="sans-serif" font-size="11pt" font-style="normal" font-weight="normal" text-decoration="normal" x="997.8885925547227" y="860.3751578109997" text-anchor="start" dominant-baseline="alphabetic" xml:space="preserve">Spawn a thread to process the tape job</text></g><g><g><rect fill="white" stroke="none" x="1257.4749310263378" y="899.5796457309996" width="107.59199775757813" height="21.23576429"/></g><text fill="black" stroke="none" font-family="sans-serif" font-size="11pt" font-style="normal" font-weight="normal" text-decoration="normal" x="1259.9252115213378" y="914.2813287009996" text-anchor="start" dominant-baseline="alphabetic" xml:space="preserve">separate thread</text></g><g><path fill="none" stroke="black" paint-order="fill stroke markers" d=" M 1125.4332855478867 920.8154100209996 L 1494.3860403790336 920.8154100209996" stroke-miterlimit="10" stroke-width="1.3612669416666667" stroke-dasharray="6.53408132"/><g transform="translate(1497.108574262367,920.8154100209996) translate(-1497.108574262367,-920.8154100209996)"><path fill="black" stroke="none" paint-order="stroke fill markers" d=" M 1483.4959048457004 914.0090753126663 L 1497.108574262367 920.8154100209996 L 1483.4959048457004 927.6217447293329 Z"/></g></g><g><g><rect fill="white" stroke="none" x="1134.0085185919804" y="945.3182149709995" width="67.64212287964844" height="21.23576429"/></g><text fill="black" stroke="none" font-family="sans-serif" font-size="11pt" font-style="normal" font-weight="normal" text-decoration="normal" x="1136.4587990869804" y="960.0198979409995" text-anchor="start" dominant-baseline="alphabetic" xml:space="preserve">manage()</text></g><g><path fill="none" stroke="black" paint-order="fill stroke markers" d=" M 1497.108574262367 966.5539792609995 L 841.2731196845756 966.5539792609995" stroke-miterlimit="10" stroke-width="1.3612669416666667" stroke-dasharray=""/><g transform="translate(838.5505858012423,966.5539792609995) translate(-838.5505858012423,-966.5539792609995)"><path fill="black" stroke="none" paint-order="stroke fill markers" d=" M 852.163255217909 959.7476445526662 L 838.5505858012423 966.5539792609995 L 852.163255217909 973.3603139693329 Z"/></g></g><g><g><rect fill="white" stroke="none" x="1242.0096562155468" y="991.0567842109995" width="45.61635078492188" height="21.23576429"/></g><text fill="black" stroke="none" font-family="sans-serif" font-size="11pt" font-style="normal" font-weight="normal" text-decoration="normal" x="1244.4599367105468" y="1005.7584671809994" text-anchor="start" dominant-baseline="alphabetic" xml:space="preserve">write()</text></g><g><path fill="none" stroke="black" paint-order="fill stroke markers" d=" M 838.5505858012423 1012.2925485009995 L 1688.3625435314398 1012.2925485009995" stroke-miterlimit="10" stroke-width="1.3612669416666667" stroke-dasharray=""/><g transform="translate(1691.0850774147732,1012.2925485009995) translate(-1691.0850774147732,-1012.2925485009995)"><path fill="black" stroke="none" paint-order="stroke fill markers" d=" M 1677.4724079981065 1005.4862137926661 L 1691.0850774147732 1012.2925485009995 L 1677.4724079981065 1019.0988832093328 Z"/></g></g><g><g><rect fill="white" stroke="none" x="1836.1419846532028" y="1036.7953534509995" width="4.90056099" height="21.23576429"/></g><text fill="black" stroke="none" font-family="sans-serif" font-size="11pt" font-style="normal" font-weight="normal" text-decoration="normal" x="1838.5922651482028" y="1051.4970364209996" text-anchor="start" dominant-baseline="alphabetic" xml:space="preserve"></text></g><g><path fill="none" stroke="black" paint-order="fill stroke markers" d=" M 1691.0850774147732 1058.0311177409994 L 1983.376918998299 1058.0311177409994" stroke-miterlimit="10" stroke-width="1.3612669416666667" stroke-dasharray=""/><g transform="translate(1986.0994528816325,1058.0311177409994) translate(-1986.0994528816325,-1058.0311177409994)"><path fill="black" stroke="none" paint-order="stroke fill markers" d=" M 1972.4867834649658 1051.2247830326662 L 1986.0994528816325 1058.0311177409994 L 1972.4867834649658 1064.8374524493327 Z"/></g></g><path fill="white" stroke="black" paint-order="fill stroke markers" d=" M 1858.9209794188591 1082.5339226909994 L 2098.5762433744057 1082.5339226909994 L 2113.277926344406 1097.2356056609995 L 2113.277926344406 1120.1048902809994 L 1858.9209794188591 1120.1048902809994 L 1858.9209794188591 1082.5339226909994 M 2098.5762433744057 1082.5339226909994 L 2098.5762433744057 1097.2356056609995 L 2113.277926344406 1097.2356056609995" stroke-miterlimit="10" stroke-width="1.3612669416666667" stroke-dasharray=""/><g><text fill="black" stroke="none" font-family="sans-serif" font-size="11pt" font-style="normal" font-weight="normal" text-decoration="normal" x="1881.790264038859" y="1105.4032073109995" text-anchor="start" dominant-baseline="alphabetic" xml:space="preserve">locateAndLoadTapeOnToDrive()</text></g><path fill="white" stroke="black" paint-order="fill stroke markers" d=" M 1920.048375048742 1144.6076952309993 L 2037.448847744523 1144.6076952309993 L 2052.150530714523 1159.3093782009994 L 2052.150530714523 1182.1786628209993 L 1920.048375048742 1182.1786628209993 L 1920.048375048742 1144.6076952309993 M 2037.448847744523 1144.6076952309993 L 2037.448847744523 1159.3093782009994 L 2052.150530714523 1159.3093782009994" stroke-miterlimit="10" stroke-width="1.3612669416666667" stroke-dasharray=""/><g><text fill="black" stroke="none" font-family="sans-serif" font-size="11pt" font-style="normal" font-weight="normal" text-decoration="normal" x="1942.9176596687419" y="1167.4769798509994" text-anchor="start" dominant-baseline="alphabetic" xml:space="preserve">isRightTape()</text></g><path fill="white" stroke="black" paint-order="fill stroke markers" d=" M 1889.074871935949 1206.6814677709992 L 2068.422350857316 1206.6814677709992 L 2083.124033827316 1221.3831507409993 L 2083.124033827316 1244.2524353609992 L 1889.074871935949 1244.2524353609992 L 1889.074871935949 1206.6814677709992 M 2068.422350857316 1206.6814677709992 L 2068.422350857316 1221.3831507409993 L 2083.124033827316 1221.3831507409993" stroke-miterlimit="10" stroke-width="1.3612669416666667" stroke-dasharray=""/><g><text fill="black" stroke="none" font-family="sans-serif" font-size="11pt" font-style="normal" font-weight="normal" text-decoration="normal" x="1911.944156555949" y="1229.5507523909994" text-anchor="start" dominant-baseline="alphabetic" xml:space="preserve">setTapeHeadPosition()</text></g><g><g><rect fill="white" stroke="none" x="1836.1419846532028" y="1268.7552403109994" width="4.90056099" height="21.23576429"/></g><text fill="black" stroke="none" font-family="sans-serif" font-size="11pt" font-style="normal" font-weight="normal" text-decoration="normal" x="1838.5922651482028" y="1283.4569232809995" text-anchor="start" dominant-baseline="alphabetic" xml:space="preserve"></text></g><g><path fill="none" stroke="black" paint-order="fill stroke markers" d=" M 1986.0994528816325 1289.9910046009993 L 1693.8076112981066 1289.9910046009993" stroke-miterlimit="10" stroke-width="1.3612669416666667" stroke-dasharray=""/><g transform="translate(1691.0850774147732,1289.9910046009993) translate(-1691.0850774147732,-1289.9910046009993)"><path fill="black" stroke="none" paint-order="stroke fill markers" d=" M 1704.6977468314399 1283.184669892666 L 1691.0850774147732 1289.9910046009993 L 1704.6977468314399 1296.7973393093325 Z"/></g></g><path fill="white" stroke="black" paint-order="fill stroke markers" d=" M 1541.5086242156717 1314.4938095509992 L 1825.9598476438748 1314.4938095509992 L 1840.661530613875 1329.1954925209993 L 1840.661530613875 1352.0647771409992 L 1541.5086242156717 1352.0647771409992 L 1541.5086242156717 1314.4938095509992 M 1825.9598476438748 1314.4938095509992 L 1825.9598476438748 1329.1954925209993 L 1840.661530613875 1329.1954925209993" stroke-miterlimit="10" stroke-width="1.3612669416666667" stroke-dasharray=""/><g><text fill="black" stroke="none" font-family="sans-serif" font-size="11pt" font-style="normal" font-weight="normal" text-decoration="normal" x="1564.3779088356716" y="1337.3630941709994" text-anchor="start" dominant-baseline="alphabetic" xml:space="preserve">Chooses the storage level specific impl</text></g><g><g><rect fill="white" stroke="none" x="1949.4276452870233" y="1376.5675820909994" width="4.90056099" height="21.23576429"/></g><text fill="black" stroke="none" font-family="sans-serif" font-size="11pt" font-style="normal" font-weight="normal" text-decoration="normal" x="1951.8779257820233" y="1391.2692650609995" text-anchor="start" dominant-baseline="alphabetic" xml:space="preserve"></text></g><g><path fill="none" stroke="black" paint-order="fill stroke markers" d=" M 1691.0850774147732 1397.8033463809993 L 2209.94824026594 1397.8033463809993" stroke-miterlimit="10" stroke-width="1.3612669416666667" stroke-dasharray=""/><g transform="translate(2212.6707741492733,1397.8033463809993) translate(-2212.6707741492733,-1397.8033463809993)"><path fill="black" stroke="none" paint-order="stroke fill markers" d=" M 2199.058104732607 1390.997011672666 L 2212.6707741492733 1397.8033463809993 L 2199.058104732607 1404.6096810893325 Z"/></g></g><path fill="white" stroke="black" paint-order="fill stroke markers" d=" M 2158.0298525663825 1422.3061513309992 L 2252.6100127621635 1422.3061513309992 L 2267.3116957321636 1437.0078343009993 L 2267.3116957321636 1459.8771189209992 L 2158.0298525663825 1459.8771189209992 L 2158.0298525663825 1422.3061513309992 M 2252.6100127621635 1422.3061513309992 L 2252.6100127621635 1437.0078343009993 L 2267.3116957321636 1437.0078343009993" stroke-miterlimit="10" stroke-width="1.3612669416666667" stroke-dasharray=""/><g><text fill="black" stroke="none" font-family="sans-serif" font-size="11pt" font-style="normal" font-weight="normal" text-decoration="normal" x="2180.8991371863826" y="1445.1754359509994" text-anchor="start" dominant-baseline="alphabetic" xml:space="preserve">Block/File</text></g><g><g><rect fill="white" stroke="none" x="2458.194922455148" y="1484.3799238709994" width="45.61635078492188" height="21.23576429"/></g><text fill="black" stroke="none" font-family="sans-serif" font-size="11pt" font-style="normal" font-weight="normal" text-decoration="normal" x="2460.645202950148" y="1499.0816068409995" text-anchor="start" dominant-baseline="alphabetic" xml:space="preserve">write()</text></g><g><path fill="none" stroke="black" paint-order="fill stroke markers" d=" M 2372.8283914984568 1505.6156881609993 L 2586.455270313428 1505.6156881609993" stroke-miterlimit="10" stroke-width="1.3612669416666667" stroke-dasharray=""/><g transform="translate(2589.1778041967614,1505.6156881609993) translate(-2589.1778041967614,-1505.6156881609993)"><path fill="black" stroke="none" paint-order="stroke fill markers" d=" M 2575.565134780095 1498.809353452666 L 2589.1778041967614 1505.6156881609993 L 2575.565134780095 1512.4220228693325 Z"/></g></g><g><g><rect fill="white" stroke="none" x="2421.1047430117887" y="1530.1184931109995" width="119.79670967164063" height="21.23576429"/></g><text fill="black" stroke="none" font-family="sans-serif" font-size="11pt" font-style="normal" font-weight="normal" text-decoration="normal" x="2423.5550235067885" y="1544.8201760809995" text-anchor="start" dominant-baseline="alphabetic" xml:space="preserve">ArchiveResponse</text></g><g><path fill="none" stroke="black" paint-order="fill stroke markers" d=" M 2589.1778041967614 1551.3542574009994 L 2375.55092538179 1551.3542574009994" stroke-miterlimit="10" stroke-width="1.3612669416666667" stroke-dasharray=""/><g transform="translate(2372.8283914984568,1551.3542574009994) translate(-2372.8283914984568,-1551.3542574009994)"><path fill="black" stroke="none" paint-order="stroke fill markers" d=" M 2386.441060915123 1544.5479226926661 L 2372.8283914984568 1551.3542574009994 L 2386.441060915123 1558.1605921093326 Z"/></g></g><g><g><rect fill="white" stroke="none" x="2029.5064539616149" y="1575.8570623509995" width="4.90056099" height="21.23576429"/></g><text fill="black" stroke="none" font-family="sans-serif" font-size="11pt" font-style="normal" font-weight="normal" text-decoration="normal" x="2031.9567344566149" y="1590.5587453209996" text-anchor="start" dominant-baseline="alphabetic" xml:space="preserve"></text></g><g><path fill="none" stroke="black" paint-order="fill stroke markers" d=" M 2372.8283914984568 1597.0928266409994 L 1693.8076112981066 1597.0928266409994" stroke-miterlimit="10" stroke-width="1.3612669416666667" stroke-dasharray=""/><g transform="translate(1691.0850774147732,1597.0928266409994) translate(-1691.0850774147732,-1597.0928266409994)"><path fill="black" stroke="none" paint-order="stroke fill markers" d=" M 1704.6977468314399 1590.2864919326662 L 1691.0850774147732 1597.0928266409994 L 1704.6977468314399 1603.8991613493326 Z"/></g></g><path fill="white" stroke="black" paint-order="fill stroke markers" d=" M 1605.46706690366 1621.5956315909993 L 1762.0014049558865 1621.5956315909993 L 1776.7030879258866 1636.2973145609994 L 1776.7030879258866 1659.1665991809994 L 1605.46706690366 1659.1665991809994 L 1605.46706690366 1621.5956315909993 M 1762.0014049558865 1621.5956315909993 L 1762.0014049558865 1636.2973145609994 L 1776.7030879258866 1636.2973145609994" stroke-miterlimit="10" stroke-width="1.3612669416666667" stroke-dasharray=""/><g><text fill="black" stroke="none" font-family="sans-serif" font-size="11pt" font-style="normal" font-weight="normal" text-decoration="normal" x="1628.33635152366" y="1644.4649162109995" text-anchor="start" dominant-baseline="alphabetic" xml:space="preserve">Updates Job status</text></g><path fill="white" stroke="black" paint-order="fill stroke markers" d=" M 1871.5516099120232 1683.6694041309993 L 2085.9456128812417 1683.6694041309993 L 2100.647295851242 1698.3710871009994 L 2100.647295851242 1721.2403717209993 L 1871.5516099120232 1721.2403717209993 L 1871.5516099120232 1683.6694041309993 M 2085.9456128812417 1683.6694041309993 L 2085.9456128812417 1698.3710871009994 L 2100.647295851242 1698.3710871009994" stroke-miterlimit="10" stroke-width="1.3612669416666667" stroke-dasharray=""/><g><text fill="black" stroke="none" font-family="sans-serif" font-size="11pt" font-style="normal" font-weight="normal" text-decoration="normal" x="1894.420894532023" y="1706.5386887509994" text-anchor="start" dominant-baseline="alphabetic" xml:space="preserve">Updates tape specific tables</text></g><g><g><rect fill="white" stroke="none" x="1726.1115043782693" y="1745.7431766709994" width="30.985018387460936" height="21.23576429"/></g><text fill="black" stroke="none" font-family="sans-serif" font-size="11pt" font-style="normal" font-weight="normal" text-decoration="normal" x="1728.5617848732693" y="1760.4448596409995" text-anchor="start" dominant-baseline="alphabetic" xml:space="preserve">End</text></g><g><path fill="none" stroke="black" paint-order="fill stroke markers" d=" M 1986.0994528816325 1766.9789409609994 L 1499.8311081457005 1766.9789409609994" stroke-miterlimit="10" stroke-width="1.3612669416666667" stroke-dasharray=""/><g transform="translate(1497.108574262367,1766.9789409609994) translate(-1497.108574262367,-1766.9789409609994)"><path fill="black" stroke="none" paint-order="stroke fill markers" d=" M 1510.7212436790337 1760.1726062526661 L 1497.108574262367 1766.9789409609994 L 1510.7212436790337 1773.7852756693326 Z"/></g></g></g><g/><g/><g/><g/><g/><g/><g/><g/><g/><g/><g/><g/></g></svg>